<?xml version="1.0" encoding="iso-8859-1"?>
<!-- Generator: Adobe Illustrator 16.0.0, SVG Export Plug-In . SVG Version: 6.00 Build 0)  -->
<!DOCTYPE svg PUBLIC "-//W3C//DTD SVG 1.1//EN" "http://www.w3.org/Graphics/SVG/1.1/DTD/svg11.dtd">
<svg version="1.1" id="Capa_1" xmlns="http://www.w3.org/2000/svg" xmlns:xlink="http://www.w3.org/1999/xlink" x="0px" y="0px"
	 width="227.905px" height="227.905px" viewBox="0 0 227.905 227.905" style="enable-background:new 0 0 227.905 227.905;"
	 xml:space="preserve">
<g>
	<path d="M163.622,73.651c4.36-5.508,8.47-10.695,9.414-13.326c0.164-0.654,4.135-16.173-3.471-18.475
		c-3.939-2.106-14.328-8.388-15.753-12.41l0.256-2.457c0.171-0.43,0.646-1.721,0.712-3.535c0.932-0.767,3.033-2.911,2.595-6.527
		c0.097-0.561,0.194-1.852-0.438-2.631c-0.323-0.374-0.755-0.581-1.255-0.581c-0.012,0-0.024,0-0.036,0
		c0.213-2.339,0.188-6.747-2.296-9.962c-1.784-2.302-4.47-3.557-8.056-3.748c-4.36,0.036-12.604,2.201-12.604,10.145
		c0,0.256,0.183,2.493,0.329,4.232c-0.664-0.104-1.157,0.271-1.377,0.505c-0.2,0.244-0.432,0.679-0.347,1.23
		c-0.036,1.06-0.073,6.098,2.441,7.365c0.231,1.438,0.914,4.643,2.491,6.004l0.085,4.028l-3.939,2.305
		c-1.298-0.828-4.829-2.804-9.22-2.804c-3.787,0-7.225,1.452-10.217,4.338c-2.281,0.195-14.478,1.422-18.487,6.418
		c-2.259-1.035-9.603-4.034-21.604-5.736c-1.516-0.219-4.335-1.641-5.501-2.968c-0.335-1.075-2.07-5.907-5.688-5.907
		c-0.84,0-1.708,0.268-2.579,0.792c-2.022,1.242-4.877,5.407-5.325,8.5c-0.195,1.339,0.055,2.399,0.734,3.154
		c0.855,0.947,3.998,2.712,6.966,2.712c0.853,0,1.653-0.137,2.363-0.417c0.618,0.137,2.362,0.686,4.277,2.375
		c0.469,0.46,12.047,11.643,26.68,10.875c0.944,0.466,4.473,2.144,9.518,3.011c1.227,0.219,2.704,0.429,4.344,0.429
		c3.636,0,6.808-1.096,9.648-3.328c0.274,2.083,1.029,5.583,3.111,9.353l-7.934,0.098c-0.853-0.853-3.243-3.023-5.273-3.023
		c-0.91,0-1.671,0.405-2.183,1.172c-1.349,0.561-5.206,2.363-5.514,4.558c-0.067,0.487,0,1.166,0.594,1.815
		c-0.237,1.035-0.195,2.469,0.947,3.374c-0.049,0.387-0.042,0.874,0.143,1.385c0.244,0.648,0.712,1.185,1.397,1.596
		c0.332,1.023,1.44,2.338,4.086,2.338c1.197,0,2.643-0.268,4.427-0.853c0.124-0.069,1.107-0.593,1.938-1.973
		c1.56,0.183,5.764,0.804,8.632,2.396c-0.305,2.411-1.395,11.061-1.479,14.272c-0.073,2.399,0.608,8.711,0.761,10.026
		c-0.725,1.863-5.729,15.043-7.764,28.306c-0.262,1.717-0.812,3.921-1.392,6.247c-1.82,7.295-4.076,16.367-0.974,23.005
		c1.83,3.921,2.414,4.773,12.108,11.533c3.951,2.752,7.124,5.37,7.483,6.089c0.049,0.134,3.781,11.722,7.721,19.601
		c0.024,0.079,2.868,7.91,1.79,12.203l-8.25,5.145c-1.334,0.28-9.414,2.07-11.795,5.968c-0.043,0.122-0.438,1.193,0.256,2.204
		c1.12,1.669,4.28,1.827,9.353,0.634c0.109-0.024,11.296-2.07,16.337-2.07c0.524,0,0.98,0.024,1.249,0.061
		c0.042,0.013,1.126,0.28,2.447,0.28c1.997,0,3.532-0.621,4.427-1.778c0.999-1.303,1.182-3.202,0.524-5.675
		c-0.037-0.128-3.63-12.203-4.689-20.837c3.325,4.348,9.822,14.76,8.58,28.509c0.049,0.378,0.578,3.715,3.057,4.385l0.274,0.072
		c0.383,0.11,0.785,0.232,1.218,0.232c2.016,0,3.02-2.205,4.293-9.378c0.146-0.889,3.44-21.665,0.322-27.425
		c-0.043-0.086-0.098-0.152-0.152-0.22c-0.091-0.085-2.046-2.003-6.247-2.387c-1.693-1.62-11.941-11.728-15.369-20.082
		c-0.444-1.353-2.68-7.771-4.22-9.743l0.815-18.347c0.396-1.083,0.646-1.826,0.694-2.003c0.853-2.138,2.211-5.84,2.825-9.188
		c1.547-1.23,8.062-7.003,7.922-17.159c0.049-0.563,0.871-13.506-3.147-17.735c-0.006-0.113-0.013-0.268-0.013-0.38
		c0-0.244-0.012-0.46-0.042-0.63c-0.116-0.609,0.858-3.69,3.227-7.688C156.552,82.566,160.145,78.035,163.622,73.651z
		 M113.572,75.174c-0.405,0-0.761,0.191-0.923,0.536c-0.56,1.203-1.303,1.656-1.266,1.656c-1.465,0.462-2.719,0.694-3.721,0.694
		c-2.135,0-2.32-1.06-2.333-1.147c-0.021-0.362-0.237-0.654-0.551-0.804c-1.078-0.487-0.978-1.172-0.822-1.522
		c0.107-0.231,0.119-0.499,0.031-0.73c-0.085-0.229-0.268-0.423-0.5-0.524c-1.026-0.459-0.572-1.763-0.478-2.006
		c0.161-0.387,0.037-0.843-0.301-1.099c-0.262-0.204-0.387-0.386-0.372-0.536c0.116-0.874,2.494-2.351,4.643-3.212
		c0.213-0.085,0.387-0.223,0.487-0.43c0.213-0.398,0.436-0.484,0.707-0.484c1.19,0,3.209,1.668,4.202,2.728
		c0.174,0.195,0.423,0.308,0.679,0.308h0.006l9.959-0.113c0.116,0,0.158-0.125,0.256-0.155c0.019-0.012,0.043,0,0.061-0.012
		c10.547-5.836,26.044-4.96,26.184-4.96c0.28,0.101,0.512-0.073,0.7-0.24c0.189-0.183,0.293-0.426,0.293-0.682
		c0-8.747,3.586-11.436,3.684-11.509c0.426-0.28,0.536-0.868,0.256-1.291c-0.286-0.423-0.871-0.536-1.297-0.256
		c-0.183,0.131-4.227,2.923-4.494,12.084c-3.556-0.119-15.832-0.042-25.318,4.795c-3.264-5.587-3.367-10.851-3.367-10.9
		c0-0.387-0.214-0.718-0.566-0.874c-0.348-0.155-0.749-0.073-1.018,0.176c-2.831,2.737-6.021,4.064-9.77,4.064
		c-1.498,0-2.868-0.207-4.022-0.393c-5.48-0.962-9.152-2.944-9.192-2.968c-0.155-0.088-0.362-0.113-0.511-0.113
		c-13.88,0.855-25.395-10.218-25.544-10.363c-2.856-2.506-5.419-2.887-5.526-2.898c-0.18-0.013-0.362,0-0.518,0.088
		c-0.536,0.244-1.166,0.387-1.863,0.387c-2.402,0-5.033-1.486-5.581-2.101c-0.368-0.396-0.35-1.111-0.274-1.635
		c0.387-2.643,3.005-6.287,4.451-7.164c0.566-0.351,1.111-0.524,1.602-0.524c2.134,0,3.568,3.434,3.943,4.75
		c0.03,0.131,0.091,0.231,0.167,0.338c1.421,1.769,4.826,3.498,6.808,3.767c13.993,1.963,21.674,5.849,21.75,5.897
		c0.429,0.207,0.977,0.083,1.227-0.353c2.601-4.312,13.768-5.968,17.854-6.25c0.223-0.012,0.436-0.11,0.597-0.268
		c2.697-2.691,5.772-4.052,9.146-4.052c4.792,0,8.585,2.777,8.628,2.801c0.299,0.216,0.706,0.255,1.035,0.061l4.926-2.898
		c0.293-0.161,0.47-0.487,0.463-0.816l-0.115-5.033c-0.006-0.344-0.188-0.648-0.481-0.804c-1.041-0.575-1.851-3.568-2.095-5.508
		c-0.049-0.387-0.347-0.715-0.736-0.792c-1.193-0.255-1.669-3.446-1.614-5.586c0.177,0.052,0.378,0.125,0.487,0.17
		c0.293,0.144,0.658,0.11,0.932-0.076c0.274-0.191,0.414-0.511,0.39-0.861c-0.146-1.924-0.414-5.081-0.42-5.374
		c0-8.074,10.297-8.269,10.692-8.269c2.953,0.137,5.183,1.16,6.613,2.986c2.947,3.8,1.735,9.996,1.723,10.047
		c-0.085,0.366,0.079,0.746,0.384,0.953c0.316,0.22,0.73,0.22,1.041,0c0.263-0.161,0.438-0.243,0.506-0.304
		c0.061,0.241,0.055,0.74-0.012,1.148c-0.019,0.104-0.019,0.191-0.007,0.298c0.476,3.398-2.046,5.082-2.144,5.158
		c-0.268,0.167-0.432,0.459-0.432,0.779c0,2.019-0.615,3.37-0.621,3.392c-0.043,0.098-0.079,0.186-0.098,0.305l-0.286,2.768
		c-0.013,0.131,0,0.255,0.043,0.374c1.638,5.492,15.192,12.857,16.891,13.762c4.609,1.422,3.636,10.525,2.655,15.052
		c-4.408,12.483-18.889,13.381-19.047,13.387c-0.207,0.012-0.414,0.106-0.585,0.243c-11.91,11.006-27.242,6.086-27.857,5.867
		C120.115,75.758,113.84,75.198,113.572,75.174z M153.66,216.043c0.487,1.863,0.42,3.216-0.213,4.025
		c-0.657,0.87-1.961,1.047-2.941,1.047c-1.077,0-1.984-0.219-2.082-0.243c-4.067-0.561-17.763,1.918-18.335,2.021
		c-2.095,0.493-3.812,0.749-5.114,0.749c-1.729,0-2.198-0.444-2.284-0.585c-0.134-0.183-0.091-0.39-0.121-0.39
		c1.735-2.728,8.251-4.506,10.632-4.956c0.121-0.037,0.219-0.073,0.328-0.135l8.702-5.419c0.194-0.128,0.328-0.305,0.401-0.512
		c1.498-4.81-1.607-13.378-1.771-13.834c-2.844-5.688-5.56-13.238-6.881-17.074c3.97,3.154,11.362,8.993,14.692,11.411
		C149.167,200.911,153.477,215.452,153.66,216.043z M145.001,169.06c3.885,9.492,15.569,20.557,16.069,21.031
		c0.146,0.141,0.358,0.231,0.572,0.244c3.209,0.219,4.914,1.455,5.304,1.79c2.229,4.53,0.328,20.338-0.597,26.086
		c-1.2,6.808-2.053,7.818-2.461,7.818c-0.158,0-0.42-0.073-0.693-0.134l-0.305-0.098c-1.103-0.292-1.607-2.204-1.693-2.631
		c1.462-15.953-6.929-27.303-9.913-30.786c0.037-0.354-0.042-0.694-0.353-0.901c-2.783-1.778-18.213-14.103-18.365-14.225
		c-0.098-0.085-0.219-0.061-0.329-0.098c-1.784-1.875-5.492-4.555-7.258-5.797c-9.563-6.661-9.855-7.294-11.539-10.898
		c-2.768-5.932-0.6-14.657,1.154-21.66c0.584-2.362,1.147-4.585,1.428-6.411c1.79-11.667,5.882-23.179,7.252-26.82l21.714,23.307
		c-0.913,4.756-3.386,10.412-3.41,10.479c-0.055,0.098-0.085,0.213-0.091,0.328l-0.006,0.232c-1.17,3.166-3.611,8.951-6.766,11.922
		c-0.262,0.256-0.347,0.634-0.237,0.969c0.122,0.334,0.426,0.603,0.779,0.651c0.024,0,2.68,0.396,5.468,5.968
		c0.024,0.048,0.11,0.036,0.135,0.072c0.042,0.061,0.024,0.146,0.079,0.195C141.804,160.474,143.82,165.612,145.001,169.06z
		 M140.788,155.821c-1.432-2.07-2.777-3.154-3.77-3.678c1.675-1.942,3.1-4.457,4.226-6.82L140.788,155.821z M152.917,111.916
		c0.122,8.637-5.06,13.862-6.832,15.396l-1.576-1.692c0.56-0.499,2.197-2.394,4.597-8.896c0.171-0.48-0.079-1.017-0.566-1.187
		c-0.48-0.184-1.022,0.085-1.188,0.547c-2.466,6.662-4.03,8.1-4.104,8.16c-0.006,0.012-0.006,0.012-0.013,0.024l-18.675-20.046
		l17.719-3.117c0.512-0.095,0.859-0.572,0.762-1.084c-0.092-0.5-0.555-0.874-1.084-0.755l-18.286,3.218
		c-0.055-0.45-0.109-0.999-0.158-1.599l26.938-5.062C153.112,99.04,153.148,108.381,152.917,111.916z M149.739,93.584
		c0.012,0.076,0.006,0.162,0.006,0.295c0,0.049,0.012,0.097,0.012,0.134l-26.427,4.99c-0.164-1.982-0.322-4.064-0.286-5.176
		c0.104-2.944,1.054-10.824,1.419-13.636c1.559,0.393,4.652,1.059,8.562,1.059c5.803,0,13.316-1.452,19.881-7.408
		c1.327-0.125,6.229-0.852,11.046-3.641c-0.609,0.755-1.188,1.51-1.79,2.265c-3.52,4.445-7.155,9.021-8.976,12.103
		C151.303,87.778,149.421,91.958,149.739,93.584z M130.789,123.865c-0.109,0.098-11.319,10.34-9.821,28.583
		c0.043,0.512-0.341,0.962-0.853,1.011c-0.024,0-0.049,0-0.073,0c-0.487,0-0.901-0.372-0.932-0.853
		c-1.577-19.218,9.95-29.709,10.443-30.142c0.39-0.347,0.968-0.322,1.314,0.073C131.221,122.928,131.185,123.513,130.789,123.865z
		 M145.354,180.312c0.146,0.5-0.128,1.023-0.633,1.17c-0.098,0.023-0.177,0.036-0.262,0.036c-0.408,0-0.779-0.268-0.907-0.657
		c-3.952-13.372-12.593-16.77-12.685-16.794c-0.469-0.183-0.718-0.731-0.541-1.206c0.183-0.48,0.736-0.736,1.199-0.548
		C131.921,162.44,141.116,166.003,145.354,180.312z M124.98,48.579c0.335,0.387,0.286,0.972-0.116,1.315
		c-0.164,0.143-0.383,0.216-0.608,0.216c-0.262,0-0.523-0.109-0.713-0.316c-0.262-0.305-6.448-7.282-16.124-1.096
		c-0.426,0.292-1.011,0.155-1.291-0.28c-0.274-0.438-0.149-1.011,0.286-1.291C117.497,40.048,124.895,48.491,124.98,48.579z
		 M158.141,66.625c-0.268-0.438-0.128-1.011,0.299-1.279c7.1-4.433,3.939-14.41,3.896-14.504c-0.151-0.5,0.116-1.023,0.609-1.178
		c0.487-0.149,1.023,0.106,1.169,0.606c0.037,0.119,3.636,11.472-4.677,16.672c-0.146,0.106-0.322,0.137-0.499,0.137
		C158.628,67.072,158.324,66.917,158.141,66.625z"/>
</g>
<g>
</g>
<g>
</g>
<g>
</g>
<g>
</g>
<g>
</g>
<g>
</g>
<g>
</g>
<g>
</g>
<g>
</g>
<g>
</g>
<g>
</g>
<g>
</g>
<g>
</g>
<g>
</g>
<g>
</g>
</svg>
